<svg width="26" height="26" viewBox="0 0 26 26" fill="none" xmlns="http://www.w3.org/2000/svg">
<path d="M25 17.801V8.19902C24.9995 7.77806 24.8761 7.36462 24.6421 7.00016C24.408 6.63571 24.0717 6.33307 23.6667 6.12259L14.3333 1.3216C13.9279 1.11092 13.4681 1 13 1C12.5319 1 12.0721 1.11092 11.6667 1.3216L2.33333 6.12259C1.92835 6.33307 1.59197 6.63571 1.35795 7.00016C1.12392 7.36462 1.00048 7.77806 1 8.19902V17.801C1.00048 18.2219 1.12392 18.6354 1.35795 18.9998C1.59197 19.3643 1.92835 19.6669 2.33333 19.8774L11.6667 24.6784C12.0721 24.8891 12.5319 25 13 25C13.4681 25 13.9279 24.8891 14.3333 24.6784L23.6667 19.8774C24.0717 19.6669 24.408 19.3643 24.6421 18.9998C24.8761 18.6354 24.9995 18.2219 25 17.801Z" stroke="black" stroke-width="1.5" stroke-linecap="round" stroke-linejoin="round"/>
</svg>
