<svg width="18" height="18" viewBox="0 0 18 18" fill="none" xmlns="http://www.w3.org/2000/svg">
<path d="M7.5 9.75C7.82209 10.1806 8.23302 10.5369 8.70491 10.7947C9.17681 11.0525 9.69863 11.2058 10.235 11.2442C10.7713 11.2827 11.3097 11.2053 11.8135 11.0173C12.3173 10.8294 12.7748 10.5353 13.155 10.155L15.405 7.905C16.0881 7.19774 16.4661 6.25048 16.4575 5.26724C16.449 4.284 16.0546 3.34346 15.3593 2.64818C14.664 1.9529 13.7235 1.55851 12.7403 1.54997C11.757 1.54143 10.8098 1.9194 10.1025 2.6025L8.8125 3.885" stroke="black" stroke-linecap="round" stroke-linejoin="round"/>
<path d="M10.5 8.25C10.1779 7.8194 9.76701 7.46311 9.29511 7.2053C8.82322 6.94748 8.3014 6.79416 7.76504 6.75575C7.22868 6.71734 6.69034 6.79473 6.18652 6.98266C5.6827 7.1706 5.22519 7.4647 4.84503 7.845L2.59503 10.095C1.91194 10.8023 1.53396 11.7495 1.5425 12.7328C1.55104 13.716 1.94543 14.6565 2.64071 15.3518C3.33599 16.0471 4.27654 16.4415 5.25977 16.45C6.24301 16.4586 7.19027 16.0806 7.89753 15.3975L9.18003 14.115" stroke="black" stroke-linecap="round" stroke-linejoin="round"/>
</svg>
